<?xml version="1.0" encoding="UTF-8" standalone="no"?>
<!-- Created with Inkscape (http://www.inkscape.org/) -->

<svg
   xmlns:dc="http://purl.org/dc/elements/1.1/"
   xmlns:cc="http://creativecommons.org/ns#"
   xmlns:rdf="http://www.w3.org/1999/02/22-rdf-syntax-ns#"
   xmlns:svg="http://www.w3.org/2000/svg"
   xmlns="http://www.w3.org/2000/svg"
   xmlns:xlink="http://www.w3.org/1999/xlink"
   xmlns:sodipodi="http://sodipodi.sourceforge.net/DTD/sodipodi-0.dtd"
   xmlns:inkscape="http://www.inkscape.org/namespaces/inkscape"
   width="2100"
   height="550"
   id="svg4303"
   version="1.1"
   inkscape:version="0.48.1 r9760"
   sodipodi:docname="banner.svg"
   inkscape:export-filename="/Users/nickmalcolm/workspace/couponify/public/images/banner.png"
   inkscape:export-xdpi="90"
   inkscape:export-ydpi="90"
   style="display:inline">
  <defs
     id="defs4305">
    <linearGradient
       id="linearGradient5129">
      <stop
         style="stop-color:#000000;stop-opacity:1;"
         offset="0"
         id="stop5131" />
      <stop
         style="stop-color:#000000;stop-opacity:0;"
         offset="1"
         id="stop5133" />
    </linearGradient>
    <linearGradient
       id="linearGradient5121">
      <stop
         style="stop-color:#fff76f;stop-opacity:0.94117647;"
         offset="0"
         id="stop5123" />
      <stop
         style="stop-color:#e8bc0d;stop-opacity:1;"
         offset="1"
         id="stop5125" />
    </linearGradient>
    <linearGradient
       id="linearGradient3049"
       gradientTransform="matrix(0.70646456,-0.708473,0.70772002,0.70729143,-215.26878,233.42507)"
       x1="2.1637256"
       y1="7.6017308"
       x2="486.39062"
       y2="7.6017308"
       gradientUnits="userSpaceOnUse">
      <stop
         id="stop3051"
         offset="0"
         style="stop-color:#fff;stop-opacity:1;" />
      <stop
         id="stop3053"
         offset="1"
         style="stop-color:#fff;stop-opacity:1;" />
    </linearGradient>
    <linearGradient
       inkscape:collect="always"
       xlink:href="#linearGradient5121"
       id="linearGradient5127"
       x1="1416.2339"
       y1="15.322807"
       x2="1416.2339"
       y2="507.07104"
       gradientUnits="userSpaceOnUse"
       gradientTransform="matrix(0.84855148,0,0,1.1074802,-17.287105,-42.74583)" />
    <linearGradient
       inkscape:collect="always"
       xlink:href="#linearGradient3049"
       id="linearGradient5179"
       gradientUnits="userSpaceOnUse"
       gradientTransform="matrix(0.70646456,-0.708473,0.70772002,0.70729143,-215.26878,233.42507)"
       x1="2.1637256"
       y1="7.6017308"
       x2="486.39062"
       y2="7.6017308" />
    <linearGradient
       inkscape:collect="always"
       xlink:href="#linearGradient3049"
       id="linearGradient5181"
       gradientUnits="userSpaceOnUse"
       gradientTransform="matrix(0.87974985,-0.47651483,0.47555661,0.88032648,-154.57397,149.23957)"
       x1="2.1637256"
       y1="7.6017308"
       x2="486.39062"
       y2="7.6017308" />
    <filter
       id="filter5495"
       inkscape:label="Drop shadow"
       width="1.5"
       height="1.5"
       x="-0.25"
       y="-0.25"
       color-interpolation-filters="sRGB">
      <feGaussianBlur
         id="feGaussianBlur5497"
         in="SourceAlpha"
         stdDeviation="1"
         result="blur" />
      <feColorMatrix
         id="feColorMatrix5499"
         result="bluralpha"
         type="matrix"
         values="1 0 0 0 0 0 1 0 0 0 0 0 1 0 0 0 0 0 0.702 0 " />
      <feOffset
         id="feOffset5501"
         in="bluralpha"
         dx="10"
         dy="10"
         result="offsetBlur" />
      <feMerge
         id="feMerge5503">
        <feMergeNode
           id="feMergeNode5505"
           in="offsetBlur" />
        <feMergeNode
           id="feMergeNode5507"
           in="SourceGraphic" />
      </feMerge>
    </filter>
    <filter
       id="filter5509"
       inkscape:label="Drop shadow"
       width="1.5"
       height="1.5"
       x="-0.25"
       y="-0.25"
       color-interpolation-filters="sRGB">
      <feGaussianBlur
         id="feGaussianBlur5511"
         in="SourceAlpha"
         stdDeviation="1"
         result="blur" />
      <feColorMatrix
         id="feColorMatrix5513"
         result="bluralpha"
         type="matrix"
         values="1 0 0 0 0 0 1 0 0 0 0 0 1 0 0 0 0 0 0.702 0 " />
      <feOffset
         id="feOffset5515"
         in="bluralpha"
         dx="10"
         dy="10"
         result="offsetBlur" />
      <feMerge
         id="feMerge5517">
        <feMergeNode
           id="feMergeNode5519"
           in="offsetBlur" />
        <feMergeNode
           id="feMergeNode5521"
           in="SourceGraphic" />
      </feMerge>
    </filter>
    <filter
       id="filter3031"
       inkscape:label="Inner Shadow"
       inkscape:menu="Shadows and Glows"
       inkscape:menu-tooltip="Adds a colorizable drop shadow inside"
       color-interpolation-filters="sRGB">
      <feGaussianBlur
         id="feGaussianBlur3033"
         stdDeviation="4"
         result="result8" />
      <feOffset
         id="feOffset3035"
         dx="0"
         dy="4"
         result="result11" />
      <feComposite
         id="feComposite3037"
         in2="result11"
         result="result6"
         in="SourceGraphic"
         operator="in" />
      <feFlood
         id="feFlood3039"
         result="result10"
         in="result6"
         flood-opacity="1"
         flood-color="rgb(0,0,0)" />
      <feBlend
         id="feBlend3041"
         in2="result10"
         mode="normal"
         in="result6"
         result="result12" />
      <feComposite
         id="feComposite3043"
         in2="SourceGraphic"
         result="result2"
         operator="in" />
    </filter>
    <filter
       id="filter3045"
       inkscape:label="Inner Shadow"
       inkscape:menu="Shadows and Glows"
       inkscape:menu-tooltip="Adds a colorizable drop shadow inside"
       color-interpolation-filters="sRGB">
      <feGaussianBlur
         id="feGaussianBlur3047"
         stdDeviation="4"
         result="result8" />
      <feOffset
         id="feOffset3049"
         dx="0"
         dy="4"
         result="result11" />
      <feComposite
         id="feComposite3051"
         in2="result11"
         result="result6"
         in="SourceGraphic"
         operator="in" />
      <feFlood
         id="feFlood3053"
         result="result10"
         in="result6"
         flood-opacity="1"
         flood-color="rgb(0,0,0)" />
      <feBlend
         id="feBlend3055"
         in2="result10"
         mode="normal"
         in="result6"
         result="result12" />
      <feComposite
         id="feComposite3057"
         in2="SourceGraphic"
         result="result2"
         operator="in" />
    </filter>
  </defs>
  <sodipodi:namedview
     id="base"
     pagecolor="#ffffff"
     bordercolor="#666666"
     borderopacity="1.0"
     inkscape:pageopacity="0"
     inkscape:pageshadow="2"
     inkscape:zoom="0.37476659"
     inkscape:cx="1370.5726"
     inkscape:cy="68.292023"
     inkscape:document-units="px"
     inkscape:current-layer="layer1"
     showgrid="false"
     inkscape:window-width="1196"
     inkscape:window-height="672"
     inkscape:window-x="309"
     inkscape:window-y="0"
     inkscape:window-maximized="0"
     fit-margin-top="0"
     fit-margin-left="0"
     fit-margin-right="0"
     fit-margin-bottom="0"
     inkscape:showpageshadow="true"
     showborder="true" />
  <metadata
     id="metadata4308">
    <rdf:RDF>
      <cc:Work
         rdf:about="">
        <dc:format>image/svg+xml</dc:format>
        <dc:type
           rdf:resource="http://purl.org/dc/dcmitype/StillImage" />
        <dc:title></dc:title>
      </cc:Work>
    </rdf:RDF>
  </metadata>
  <g
     inkscape:groupmode="layer"
     id="layer4"
     inkscape:label="background"
     style="display:none"
     transform="translate(4.2812509,41.468751)">
    <rect
       style="fill:url(#linearGradient5127);fill-opacity:1;stroke:none"
       id="rect5119"
       width="2130.916"
       height="559.362"
       x="-19.001436"
       y="-43.892807" />
  </g>
  <g
     inkscape:groupmode="layer"
     id="layer2"
     inkscape:label="logo"
     style="display:none"
     transform="translate(4.2812509,41.468751)">
    <g
       style="display:inline"
       inkscape:label="Layer"
       id="layer2-3"
       transform="matrix(0.95812678,0.28634434,-0.28634434,0.95812678,118.52076,-12.770239)">
      <path
         inkscape:connector-curvature="0"
         style="fill:url(#linearGradient5179)"
         id="rect3000"
         d="M 26.100751,2.1411795 C 25.470844,14.282577 16.2409,23.94579 4.859439,24.135917 L 5.222612,446.31632 c 11.799142,0.17675 21.3421,10.54127 21.35308,23.30649 6.69e-4,0.78079 -0.0384,1.57145 -0.107148,2.33258 l 38.879963,-0.0335 c -0.0221,-0.71588 -0.074,-1.42909 -0.0747,-2.15018 -0.0336,-39.10601 31.61061,-70.84021 70.672963,-70.87389 39.06236,-0.0336 70.76114,31.64592 70.79478,70.75191 6.3e-4,0.72099 -0.0138,1.43451 -0.0345,2.1503 l 35.31234,-0.0304 c -0.0702,-0.76101 -0.1105,-1.55159 -0.11118,-2.33238 -0.0111,-12.88199 9.65572,-23.33323 21.6042,-23.34352 0.44856,-4e-4 0.90522,0.043 1.34703,0.0717 L 264.49822,26.208132 c -0.44096,0.0293 -0.89919,0.03714 -1.34693,0.03754 -11.94848,0.01031 -21.63323,-10.424269 -21.64432,-23.3062465 -2.8e-4,-0.334297 0.023,-0.653176 0.0355,-0.984037 l -35.31233,0.03043 C 206.16504,41.007712 174.5584,72.643852 135.55702,72.677469 96.555647,72.711089 64.894627,41.129511 64.762397,2.1077835 l -38.661536,0.03333 z" />
    </g>
  </g>
  <g
     style="display:inline"
     inkscape:label="logo copy"
     id="g5170"
     inkscape:groupmode="layer"
     transform="translate(4.2812509,41.468751)">
    <g
       transform="matrix(0.95812678,0.28634434,-0.28634434,0.95812678,126.52076,-26.770239)"
       id="g5172"
       inkscape:label="Layer"
       style="display:inline;filter:url(#filter3031)">
      <path
         style="fill:url(#linearGradient5181);"
         d="M 142.90625,-3.25 C 138.8261,8.2026278 127.20932,14.826851 116.25,11.75 L -4.28125,416.34375 C 6.9732126,419.89172 13.144728,432.57866 9.5,444.8125 9.2770662,445.56079 9.0338146,446.29043 8.75,447 L 46,458.09375 c 0.183814,-0.69223 0.325441,-1.3714 0.53125,-2.0625 11.165592,-37.47814 50.594919,-58.84051 88.03125,-47.6875 37.43631,11.15309 58.72805,50.58437 47.5625,88.0625 -0.20585,0.69098 -0.43145,1.38261 -0.65625,2.0625 l 33.84375,10.0625 c 0.15065,-0.74925 0.33958,-1.50171 0.5625,-2.25 3.67805,-12.34576 15.92389,-19.59902 27.375,-16.1875 0.42989,0.12806 0.86616,0.31474 1.28125,0.46875 l 119.90625,-402.5 c -0.43089,-0.09819 -0.88339,-0.215925 -1.3125,-0.34375 -11.45111,-3.411501 -17.74056,-16.185507 -14.0625,-28.53125 0.0955,-0.320379 0.20578,-0.592823 0.3125,-0.90625 L 315.53125,48.1875 c -11.23607,37.36928 -50.55961,58.63562 -87.9375,47.5 C 190.21586,84.55189 168.92179,45.206875 179.96875,7.78125 L 142.90625,-3.25 z m 50.4375,154.40625 c 1.35026,-0.007 2.70833,0.0313 4.0625,0.0937 32.3332,1.66686 49.16652,11.83352 50.5,30.5 1.33318,14.66682 -3.16681,24.66681 -13.5,30 -2.6668,1.6668 -5.66679,2.00014 -9,1 -3.00012,1.4e-4 -5.00012,-0.99986 -6,-3 -0.66678,-1.99986 -1.33345,-4.16652 -2,-6.5 -0.66678,-2.66652 -1.83345,-5.16651 -3.5,-7.5 -1.33345,-2.33318 -4.16678,-3.83317 -8.5,-4.5 -10.33343,-1.33317 -20.83342,1.50016 -31.5,8.5 -14.66673,10.66681 -24.00005,28.00012 -28,52 -1.33338,6.66676 -2.00004,13.33342 -2,20 -4e-5,15.66673 5.83328,28.83338 17.5,39.5 12.99993,12.33336 32.99991,17.66669 60,16 6.99987,-0.66664 15.16653,-3.66664 24.5,-9 5.66652,-3.3333 10.83318,-6.83329 15.5,-10.5 4.6665,-3.66662 8.6665,-7.83328 12,-12.5 1.66649,-1.99994 2.99982,-1.49994 4,1.5 2.33315,5.66672 3.16649,12.16671 2.5,19.5 -0.66685,5.6667 -1.83351,9.33336 -3.5,11 -14.00016,14.00001 -30.33348,22.5 -49,25.5 -4.00012,0.66666 -8.33345,1.16666 -13,1.5 -4.33344,0.33333 -9.0001,0.5 -14,0.5 -28.3334,0 -52.66671,-5.33333 -73,-16 -25.66667,-14.66664 -38.499988,-36.49995 -38.5,-65.5 1.2e-5,-5.66658 0.500011,-11.33324 1.5,-17 5.666671,-34.99987 20.16666,-62.16651 43.5,-81.5 19.37495,-15.62482 39.18354,-23.49593 59.4375,-23.59375 z"
         transform="matrix(0.95812677,-0.28634434,0.28634434,0.95812677,-109.90123,46.173256)"
         id="path5174"
         inkscape:connector-curvature="0" />
    </g>
  </g>
  <g
     inkscape:groupmode="layer"
     id="layer5"
     inkscape:label="c"
     style="display:none"
     transform="translate(4.2812509,41.468751)">
    <text
       xml:space="preserve"
       style="font-size:40px;font-style:normal;font-weight:normal;line-height:125%;letter-spacing:0px;word-spacing:0px;fill:#000000;fill-opacity:1;stroke:none;font-family:Sans"
       x="100.89341"
       y="352.74106"
       id="text5138"
       sodipodi:linespacing="125%"><tspan
         sodipodi:role="line"
         id="tspan5140"
         x="100.89341"
         y="352.74106"
         style="font-size:500px;font-style:normal;font-variant:normal;font-weight:normal;font-stretch:normal;text-align:start;line-height:125%;writing-mode:lr-tb;text-anchor:start;font-family:Marketing Script;-inkscape-font-specification:Marketing Script">c</tspan></text>
  </g>
  <g
     inkscape:label="c copy"
     id="g5161"
     inkscape:groupmode="layer"
     transform="translate(4.2812509,41.468751)">
    <g
       style="font-size:40px;font-style:normal;font-weight:normal;line-height:125%;letter-spacing:0px;word-spacing:0px;fill:#000000;fill-opacity:1;stroke:none;font-family:Sans"
       id="text5163" />
  </g>
  <g
     inkscape:label="ouponify"
     inkscape:groupmode="layer"
     id="layer1"
     transform="translate(4.2812509,-510.89343)"
     style="display:inline">
    <text
       xml:space="preserve"
       style="font-size:40px;font-style:normal;font-weight:normal;line-height:125%;letter-spacing:0px;word-spacing:0px;fill:#ffffff;fill-opacity:1;stroke:none;font-family:Sans;filter:url(#filter3045)"
       x="357.49246"
       y="887.39038"
       id="text4311"
       sodipodi:linespacing="125%"><tspan
         sodipodi:role="line"
         id="tspan4313"
         x="357.49246"
         y="887.39038"
         style="font-size:500px;font-style:normal;font-variant:normal;font-weight:normal;font-stretch:normal;text-align:start;line-height:125%;writing-mode:lr-tb;text-anchor:start;fill:#ffffff;fill-opacity:1;font-family:Marketing Script;-inkscape-font-specification:Marketing Script;">ouponify</tspan></text>
  </g>
</svg>
