<?xml version="1.0" encoding="UTF-8" standalone="no"?>
<!-- Created with Inkscape (http://www.inkscape.org/) -->

<svg
   xmlns:dc="http://purl.org/dc/elements/1.1/"
   xmlns:cc="http://creativecommons.org/ns#"
   xmlns:rdf="http://www.w3.org/1999/02/22-rdf-syntax-ns#"
   xmlns:svg="http://www.w3.org/2000/svg"
   xmlns="http://www.w3.org/2000/svg"
   xmlns:xlink="http://www.w3.org/1999/xlink"
   xmlns:sodipodi="http://sodipodi.sourceforge.net/DTD/sodipodi-0.dtd"
   xmlns:inkscape="http://www.inkscape.org/namespaces/inkscape"
   width="380"
   height="515"
   id="svg2"
   version="1.1"
   inkscape:version="0.48.1 r9760"
   sodipodi:docname="c_coupon.svg"
   style="display:inline">
  <defs
     id="defs4">
    <linearGradient
       id="linearGradient3049">
      <stop
         style="stop-color:#fff;stop-opacity:1;"
         offset="0"
         id="stop3051" />
      <stop
         style="stop-color:#fff;stop-opacity:1;"
         offset="1"
         id="stop3053" />
    </linearGradient>
    <linearGradient
       inkscape:collect="always"
       xlink:href="#linearGradient3049"
       id="linearGradient3129"
       gradientTransform="matrix(0.89546624,-0.44506969,0.44509337,0.89551388,-140.1375,128.86516)"
       x1="2.1637256"
       y1="7.6017308"
       x2="486.39062"
       y2="7.6017308"
       gradientUnits="userSpaceOnUse" />
  </defs>
  <sodipodi:namedview
     id="base"
     pagecolor="#ffffff"
     bordercolor="#666666"
     borderopacity="1.0"
     inkscape:pageopacity="0.0"
     inkscape:pageshadow="2"
     inkscape:zoom="0.7"
     inkscape:cx="110.71429"
     inkscape:cy="247.85714"
     inkscape:document-units="px"
     inkscape:current-layer="layer2"
     showgrid="false"
     inkscape:window-width="1069"
     inkscape:window-height="653"
     inkscape:window-x="64"
     inkscape:window-y="33"
     inkscape:window-maximized="0" />
  <metadata
     id="metadata7">
    <rdf:RDF>
      <cc:Work
         rdf:about="">
        <dc:format>image/svg+xml</dc:format>
        <dc:type
           rdf:resource="http://purl.org/dc/dcmitype/StillImage" />
        <dc:title />
      </cc:Work>
    </rdf:RDF>
  </metadata>
  <g
     inkscape:groupmode="layer"
     id="layer7"
     inkscape:label="Background"
     style="display:none"
     transform="translate(0,15)">
    <rect
       style="fill:#000000;stroke:#dde768;stroke-opacity:1"
       id="rect3106"
       width="627.14288"
       height="561.42859"
       x="-61.42857"
       y="-28.571428" />
  </g>
  <filter
     id="i1"
     width="1.5"
     height="1.5"
     color-interpolation-filters="sRGB">
    <feOffset
       result="offOut"
       in="SourceAlpha"
       dx="10"
       dy="10"
       id="feOffset3028" />
    <feGaussianBlur
       result="blurOut"
       in="offOut"
       stdDeviation="5"
       id="feGaussianBlur3030" />
    <feColorMatrix
       result="matrixOut"
       in="offOut"
       type="matrix"
       values="1 1 1 1 1 1 0.2 0 0 0 0 0 0.2 0 0 0 0 0 1 0"
       id="feColorMatrix3032" />
    <feBlend
       in="SourceGraphic"
       in2="blurOut"
       mode="normal"
       id="feBlend3034" />
  </filter>
  <g
     inkscape:groupmode="layer"
     id="layer2"
     inkscape:label="Coupon"
     style="display:inline;filter:url(#i1)"
     transform="translate(0,15)">
    <path
       style="fill:url(#linearGradient3129)"
       d="M 162.364,-13.005844 C 157.89453,-1.7137569 146.06464,4.4989374 135.21813,1.0447104 L 0.9119414,400.78639 c 11.1253196,3.93489 16.8496996,16.80255 12.7885996,28.8898 -0.24884,0.73916 -0.53581,1.46564 -0.8437,2.16418 l 36.86573,12.38623 c 0.20745,-0.6847 0.39038,-1.37012 0.61976,-2.05293 12.44115,-37.02902 52.547969,-56.96316 89.576999,-44.52206 37.02901,12.44114 56.96318,52.54796 44.52206,89.57699 -0.22898,0.68283 -0.45605,1.35366 -0.70357,2.02478 l 33.47242,11.2461 c 0.17623,-0.74279 0.38583,-1.49524 0.63422,-2.23457 4.09829,-12.19779 16.57676,-19.00025 27.90328,-15.19472 0.4252,0.1429 0.84705,0.32395 1.2566,0.49216 L 380.60676,85.915319 c -0.42724,-0.113061 -0.86032,-0.265741 -1.28477,-0.408348 -11.32652,-3.805493 -17.16619,-16.762535 -13.06794,-28.96034 0.10629,-0.316544 0.21996,-0.626448 0.33768,-0.935547 L 333.11932,44.364955 C 320.61142,81.282829 280.56983,101.14112 243.59861,88.71943 206.6274,76.297741 186.69943,36.290752 199.02025,-0.68999054 L 162.36399,-13.005851 z M 120.69318,143.69959 c 6.49111,-3.48509 13.48507,-4.28878 20.96891,-2.39575 15.77923,3.66829 24.6718,11.83168 26.67677,24.46471 0.82079,3.36054 0.13113,6.6136 -2.06364,9.74997 -1.03498,3.13364 -2.77724,4.88816 -5.21136,5.24236 -2.31889,0.006 -4.80923,-0.0486 -7.47649,-0.15757 -3.0152,-0.22362 -6.03229,0.10527 -9.04461,1.04057 -2.89705,0.58772 -5.42849,3.05105 -7.62016,7.34693 -4.958,10.33308 -5.61669,22.25804 -1.98597,35.81438 6.08056,18.99969 20.94975,34.73069 44.637,47.18969 6.50323,3.69304 13.2519,6.70617 20.21502,9.00642 16.36362,5.4058 32.10946,3.85213 47.27611,-4.653 17.36756,-9.32259 29.83321,-28.37821 37.40873,-57.15438 1.71898,-7.54126 1.42616,-17.09095 -0.92395,-28.67987 -1.52633,-7.06871 -3.40729,-13.67703 -5.62683,-19.81662 -2.21954,-6.13923 -5.18003,-11.76963 -8.90411,-16.86166 -1.5139,-2.4307 -0.54893,-3.64503 2.92956,-3.65459 6.72384,-0.48165 13.80343,0.87704 21.23294,4.10347 5.68867,2.65178 9.10244,5.14372 10.26816,7.45941 9.79203,19.45359 13.05912,39.45997 9.75172,59.99195 -0.68393,4.40808 -1.67845,9.10511 -2.94046,14.09425 -1.14709,4.6412 -2.57259,9.58144 -4.2978,14.80375 -9.77634,29.59372 -23.74214,53.17061 -41.89924,70.72783 -24.17525,21.74767 -51.41055,27.61651 -81.70058,17.61011 -5.91865,-1.95519 -11.66818,-4.44831 -17.24196,-7.44808 -34.60142,-17.99539 -57.95106,-42.5099 -70.093409,-73.55214 -10.27684,-27.33664 -11.18002,-52.15413 -2.65968,-74.43967 8.060949,-20.74767 17.506819,-34.02399 28.325329,-39.83247 z"
       id="rect3000"
       inkscape:connector-curvature="0" />
  </g>
  <g
     inkscape:groupmode="layer"
     id="layer6"
     inkscape:label="Text $"
     style="display:none"
     transform="translate(0,15)">
    <g
       transform="matrix(0.70351527,-0.71068015,0.71068015,0.70351527,0,0)"
       style="font-size:40px;font-style:normal;font-weight:normal;line-height:125%;letter-spacing:0px;word-spacing:0px;fill:#000000;fill-opacity:1;stroke:none;font-family:Sans"
       id="text3826">
      <path
         d="m 111.77339,419.42785 c 0.73314,-8.06662 -0.18353,-15.21661 -2.75,-21.45 -1.10019,-3.29993 -2.56686,-3.84993 -4.4,-1.65 -3.66685,5.13339 -8.066848,9.71672 -13.2,13.75 -5.133505,4.03338 -10.816832,7.88338 -17.05,11.55 -10.266816,5.8667 -19.25014,9.1667 -26.95,9.9 -29.700103,1.83336 -51.7000807,-4.0333 -66,-17.6 -12.833387,-11.73328 -19.250047,-26.21659 -19.25,-43.45 -4.7e-5,-7.33324 0.733285,-14.66656 2.2,-22 4.399946,-26.39986 14.666603,-45.46651 30.8000002,-57.2 11.7332413,-7.69982 23.2832298,-10.81649 34.6499998,-9.35 4.766547,0.73351 7.883211,2.38351 9.35,4.95 1.833207,2.56684 3.116539,5.31683 3.85,8.25 0.733205,2.56683 1.466537,4.95016 2.2,7.15 1.099869,2.20016 3.299867,3.30015 6.6,3.3 3.666526,1.10015 6.966523,0.73349 9.9,-1.1 11.366509,-5.86651 16.316504,-16.86649 14.85,-33 -1.466827,-20.53312 -19.983475,-31.71645 -55.55,-33.55 -23.8334155,-1.09978 -47.116726,7.51688 -69.85,25.85 -25.666677,21.26684 -41.616661,51.15014 -47.85,89.65 -1.099987,6.23343 -1.649987,12.46676 -1.65,18.7 1.3e-5,31.90006 14.116666,55.9167 42.35,72.05 22.366615,11.73334 49.1332552,17.6 80.3,17.6 5.499885,0 10.633213,-0.18334 15.4,-0.55 5.133204,-0.36667 9.899865,-0.91667 14.3,-1.65 20.533174,-3.3 38.499823,-12.64999 53.9,-28.05 1.83314,-1.8333 3.11647,-5.86663 3.85,-12.1"
         style="font-size:550px;font-variant:normal;font-weight:bold;font-stretch:normal;fill:#000000;font-family:Marketing Script;-inkscape-font-specification:Marketing Script Bold"
         id="path3127"
         inkscape:connector-curvature="0" />
    </g>
  </g>
  <g
     style="display:none"
     inkscape:label="Text $ copy"
     id="g3120"
     inkscape:groupmode="layer"
     transform="translate(0,15)" />
</svg>
