<?xml version="1.0" encoding="UTF-8" standalone="no"?>
<!-- Created with Inkscape (http://www.inkscape.org/) -->

<svg
   xmlns:dc="http://purl.org/dc/elements/1.1/"
   xmlns:cc="http://creativecommons.org/ns#"
   xmlns:rdf="http://www.w3.org/1999/02/22-rdf-syntax-ns#"
   xmlns:svg="http://www.w3.org/2000/svg"
   xmlns="http://www.w3.org/2000/svg"
   xmlns:xlink="http://www.w3.org/1999/xlink"
   xmlns:sodipodi="http://sodipodi.sourceforge.net/DTD/sodipodi-0.dtd"
   xmlns:inkscape="http://www.inkscape.org/namespaces/inkscape"
   width="500"
   height="500"
   id="svg2"
   version="1.1"
   inkscape:version="0.48.1 r9760"
   sodipodi:docname="dollar_coupon.svg">
  <defs
     id="defs4">
    <linearGradient
       id="linearGradient3049">
      <stop
         style="stop-color:#fff;stop-opacity:1;"
         offset="0"
         id="stop3051" />
      <stop
         style="stop-color:#fff;stop-opacity:1;"
         offset="1"
         id="stop3053" />
    </linearGradient>
    <radialGradient
       inkscape:collect="always"
       xlink:href="#linearGradient3049"
       id="radialGradient3055"
       cx="174.43358"
       cy="308.65964"
       fx="174.43358"
       fy="308.65964"
       r="111.43758"
       gradientTransform="matrix(3.6203984,-3.6502239,3.8043666,3.7732815,-1471.4614,-188.21361)"
       gradientUnits="userSpaceOnUse" />
  </defs>
  <sodipodi:namedview
     id="base"
     pagecolor="#ffffff"
     bordercolor="#666666"
     borderopacity="1.0"
     inkscape:pageopacity="0.0"
     inkscape:pageshadow="2"
     inkscape:zoom="0.7"
     inkscape:cx="246.20293"
     inkscape:cy="266.33102"
     inkscape:document-units="px"
     inkscape:current-layer="layer2"
     showgrid="false"
     inkscape:window-width="1069"
     inkscape:window-height="653"
     inkscape:window-x="0"
     inkscape:window-y="0"
     inkscape:window-maximized="0" />
  <metadata
     id="metadata7">
    <rdf:RDF>
      <cc:Work
         rdf:about="">
        <dc:format>image/svg+xml</dc:format>
        <dc:type
           rdf:resource="http://purl.org/dc/dcmitype/StillImage" />
        <dc:title />
      </cc:Work>
    </rdf:RDF>
  </metadata>
  <g
     inkscape:groupmode="layer"
     id="layer7"
     inkscape:label="LayerABG" />
  <g
     inkscape:label="Layer 1"
     inkscape:groupmode="layer"
     id="layer1"
     transform="translate(0,-552.36218)"
     style="display:none">
    <text
       xml:space="preserve"
       style="font-size:40px;font-style:normal;font-weight:normal;line-height:125%;letter-spacing:0px;word-spacing:0px;fill:#000000;fill-opacity:1;stroke:none;font-family:Sans"
       x="554.28571"
       y="892.36218"
       id="text2993"
       sodipodi:linespacing="125%"><tspan
         sodipodi:role="line"
         id="tspan2995"
         x="554.28571"
         y="892.36218"
         style="font-size:300px;font-style:normal;font-variant:normal;font-weight:normal;font-stretch:normal;font-family:SF Arch Rival;-inkscape-font-specification:SF Arch Rival">couponify</tspan></text>
  </g>
  <filter
     id="i1"
     width="150%"
     height="150%">
    <feOffset
       result="offOut"
       in="SourceAlpha"
       dx="7"
       dy="7"
       id="feOffset4136" />
    <feGaussianBlur
       result="blurOut"
       in="offOut"
       stdDeviation="2"
       id="feGaussianBlur4138" />
    <feColorMatrix
       result="matrixOut"
       in="offOut"
       type="matrix"
       values="1 1 1 1 1 1 0.2 0 0 0 0 0 0.2 0 0 0 0 0 1 0"
       id="feColorMatrix4140" />
    <feBlend
       in="SourceGraphic"
       in2="blurOut"
       mode="normal"
       id="feBlend4142" />
  </filter>
  <g
     inkscape:groupmode="layer"
     id="layer2"
     inkscape:label="Layer"
     style="display:inline"
     filter="url(#i1)">
    <path
       style="fill:url(#radialGradient3055)"
       d="m 334.03125,7.59375 c -9.02827,8.122672 -22.38696,8.420818 -30.5625,0.5 L 5.28125,306.28125 c 8.211281,8.47533 7.610244,22.54601 -1.40625,31.5625 -0.551494,0.55149 -1.132088,1.07403 -1.71875,1.5625 l 27.5,27.5 c 0.490505,-0.52082 0.959421,-1.05316 1.46875,-1.5625 27.62183,-27.62182 72.40943,-27.62182 100.03125,0 27.62183,27.62183 27.62183,72.40943 0,100.03125 -0.50925,0.50926 -1.01059,1.0095 -1.53125,1.5 l 24.96875,24.96875 c 0.48839,-0.58675 1.01101,-1.16725 1.5625,-1.71875 9.09896,-9.09895 23.30098,-9.63653 31.75,-1.1875 0.31719,0.31718 0.61437,0.66709 0.90625,1 l 296.625,-296.625 c -0.33226,-0.2914 -0.65214,-0.6209 -0.96875,-0.9375 -8.44903,-8.44902 -7.91145,-22.65104 1.1875,-31.75 0.23613,-0.23612 0.476,-0.46287 0.71875,-0.6875 L 461.40625,134.96875 C 433.77411,162.46133 389.0787,162.42246 361.5,134.84375 333.92131,107.26505 333.8824,62.569625 361.375,34.9375 L 334.03125,7.59375 z m -87.9375,154.5 c 5.05924,-0.14079 9.0319,1.25078 11.90625,4.125 2.83118,2.8314 4.24999,6.66647 4.25,11.5 -0.0691,4.76489 -1.54382,8.54401 -4.375,11.375 -0.69054,0.69073 -2.92081,1.42811 -6.71875,2.1875 -6.2148,0.82883 -10.02517,1.38023 -11.40625,1.65625 -2.55496,0.62167 -6.43942,3.35395 -11.6875,8.1875 4.14323,4.97202 7.76762,9.40788 10.875,13.34375 3.17647,3.86716 5.95814,7.28087 8.375,10.25 30.0382,-14.98441 51.97053,-15.56051 65.78125,-1.75 16.98706,16.98728 12.91662,40.04709 -12.21875,69.1875 6.83623,8.21744 10.82604,13.68199 12,16.375 3.79787,7.25067 3.0358,13.5267 -2.28125,18.84375 -6.90539,6.90539 -14.62492,6.14331 -23.1875,-2.28125 -1.10489,-1.1048 -3.83716,-4.85922 -8.1875,-11.28125 -10.70329,9.59848 -16.42792,14.77172 -17.1875,15.53125 -8.01019,6.35296 -14.55284,10.60939 -19.59375,12.75 -7.31964,3.17649 -13.30434,2.41442 -18,-2.28125 -2.83116,-2.83114 -4.24997,-6.37489 -4.25,-10.65625 3e-5,-4.28125 1.46824,-7.93689 4.4375,-10.90625 3.24554,-3.24544 8.71009,-7.36528 16.375,-12.40625 6.76724,-4.55744 13.25394,-9.94136 19.46875,-16.15625 -11.60096,-15.05353 -18.42839,-23.77707 -20.5,-26.125 -31.4883,18.2302 -53.1293,21.51387 -64.9375,9.84375 -8.63159,-8.63156 -10.76308,-20.68816 -6.34375,-36.15625 3.24559,-11.39365 9.26155,-23.18363 18.03125,-35.40625 -5.5242,-5.8003 -8.85727,-10.26741 -10.03125,-13.375 -1.6572,-5.10975 -0.10836,-10.04761 4.65625,-14.8125 2.55505,-2.55476 6.09879,-3.97357 10.65625,-4.25 4.28137,-0.276 7.75103,0.90743 10.375,3.53125 2.41692,2.41708 4.28178,4.41198 5.59375,6 6.76727,-5.66217 14.88347,-10.22806 24.34375,-13.75 5.25669,-1.9334 9.84629,-2.98425 13.78125,-3.09375 z m -38.875,63.375 c -6.76718,10.91058 -10.12494,18.76015 -10.125,23.59375 7.52687,-2.14052 15.09167,-5.26291 22.6875,-9.40625 -1.38103,-1.38092 -3.11586,-3.32643 -5.1875,-5.8125 -2.07156,-2.48577 -4.54377,-5.26744 -7.375,-8.375 z m 78.25,17.9375 c -4.59313,0.19908 -10.72304,1.94846 -18.375,5.25 l 14.625,18.96875 0.625,-0.625 c 10.77229,-10.7722 14.44607,-17.86625 11.0625,-21.25 -1.72203,-1.72196 -4.36506,-2.49859 -7.9375,-2.34375 z"
       id="rect3000"
       inkscape:connector-curvature="0" />
  </g>
  <g
     inkscape:groupmode="layer"
     id="layer6"
     inkscape:label="Layer#1"
     style="display:none">
    <g
       transform="matrix(0.70710678,-0.70710678,0.70710678,0.70710678,0,0)"
       style="font-size:40px;font-style:normal;font-weight:normal;line-height:125%;letter-spacing:0px;word-spacing:0px;fill:#444444;fill-opacity:1;stroke:none;font-family:Sans"
       id="text3826">
      <path
         d="m -81.586792,398.97653 c -9e-6,-4.00385 1.513661,-7.51947 4.541016,-10.54687 3.027327,-3.02728 6.640604,-4.54095 10.839843,-4.54102 4.589815,7e-5 11.376918,0.9278 20.361329,2.7832 8.007759,1.56257 16.406188,2.34382 25.195312,2.34375 2.441334,-18.84757 3.759692,-29.83389 3.955078,-32.95898 -35.156289,-9.3749 -52.783224,-22.36316 -52.880859,-38.96484 -2.1e-5,-12.20689 7.031221,-22.21664 21.09375,-30.0293 10.35151,-5.76155 22.949153,-9.86311 37.792969,-12.30469 0.195232,-8.00763 0.9764809,-13.5252 2.3437495,-16.55273 2.4413213,-4.78496 7.0311605,-7.17754 13.7695313,-7.17774 3.6131814,2e-4 7.1288032,1.51387 10.5468752,4.54102 3.222546,2.83222 4.833873,6.1037 4.833984,9.81445 -1.11e-4,3.41815 -0.09777,6.15253 -0.292969,8.20313 8.788943,0.78142 17.773309,3.27166 26.953125,7.4707 11.620944,5.37126 17.431485,11.67008 17.431641,18.89648 -1.56e-4,4.00406 -1.709138,7.71499 -5.126953,11.13282 -3.418116,3.32045 -7.12905,4.9806 -11.132813,4.98047 -0.976701,1.3e-4 -3.076308,-1.07409 -6.298828,-3.22266 -4.980597,-3.80845 -8.056765,-6.10337 -9.228515,-6.88477 -2.246216,-1.36704 -6.933711,-2.19711 -14.0625,-2.49023 -0.586047,6.44545 -1.171984,12.15834 -1.757813,17.13867 -0.488389,4.9806 -0.927841,9.37512 -1.318359,13.1836 31.835799,10.64463 47.753751,25.73251 47.753906,45.26367 -1.55e-4,24.02348 -19.189588,37.4512 -57.5683594,40.2832 -0.9766585,10.64455 -2.0020481,17.334 -3.0761718,20.06836 -2.44149775,7.8125 -7.4219615,11.71875 -14.9414058,11.71875 -9.765695,0 -14.69733,-6.00585 -14.794922,-18.01758 -6.5e-5,-1.56248 0.732357,-6.15232 2.197265,-13.76953 -14.35552,-0.78122 -22.070357,-1.17184 -23.144531,-1.17187 -10.156283,-1.17185 -17.773463,-2.78317 -22.851562,-4.83399 -7.421888,-2.92965 -11.132822,-7.7148 -11.132813,-14.35547 m 44.824219,-83.49609 c 6.835876,3.80872 14.404228,6.93372 22.705078,9.375 -7.7e-5,-1.953 0.146407,-4.54089 0.439453,-7.76367 0.292891,-3.22252 0.537032,-6.93346 0.732422,-11.13282 -12.500066,2.92983 -20.459042,6.10366 -23.876953,9.52149 m 46.7285154,72.94922 0.8789066,0 c 15.234258,6e-5 22.851438,-2.39252 22.851562,-7.17774 -1.24e-4,-5.56633 -6.884883,-11.0839 -20.654297,-16.55273 l -3.0761716,23.73047"
         style="font-size:300px;font-variant:normal;font-stretch:normal;fill:#444444;font-family:SF Arch Rival;-inkscape-font-specification:SF Arch Rival"
         id="path4082"
         inkscape:connector-curvature="0" />
    </g>
  </g>
  <g
     style="display:inline"
     inkscape:label="Layer#2"
     id="g4075"
     inkscape:groupmode="layer" />
  <g
     inkscape:groupmode="layer"
     id="layer4"
     inkscape:label="top circle"
     style="display:none" />
  <g
     inkscape:groupmode="layer"
     id="layer5"
     inkscape:label="corner"
     style="display:none" />
  <g
     inkscape:label="corner copy"
     id="g3024"
     inkscape:groupmode="layer"
     style="display:none" />
  <g
     inkscape:groupmode="layer"
     id="g3028"
     inkscape:label="corner copy copy"
     style="display:none" />
  <g
     inkscape:label="corner copy copy copy"
     id="g3032"
     inkscape:groupmode="layer"
     style="display:none" />
  <g
     inkscape:label="top circle copy"
     id="g3017"
     inkscape:groupmode="layer"
     style="display:none" />
</svg>
