<?xml version="1.0" encoding="UTF-8" standalone="no"?>
<!-- Created with Inkscape (http://www.inkscape.org/) -->

<svg
   xmlns:dc="http://purl.org/dc/elements/1.1/"
   xmlns:cc="http://creativecommons.org/ns#"
   xmlns:rdf="http://www.w3.org/1999/02/22-rdf-syntax-ns#"
   xmlns:svg="http://www.w3.org/2000/svg"
   xmlns="http://www.w3.org/2000/svg"
   xmlns:xlink="http://www.w3.org/1999/xlink"
   xmlns:sodipodi="http://sodipodi.sourceforge.net/DTD/sodipodi-0.dtd"
   xmlns:inkscape="http://www.inkscape.org/namespaces/inkscape"
   width="500"
   height="500"
   id="svg2"
   version="1.1"
   inkscape:version="0.48.1 r9760"
   sodipodi:docname="dollar_coupon.svg"
   style="display:inline">
  <defs
     id="defs4">
    <linearGradient
       id="linearGradient3049">
      <stop
         style="stop-color:#fff;stop-opacity:1;"
         offset="0"
         id="stop3051" />
      <stop
         style="stop-color:#fff;stop-opacity:1;"
         offset="1"
         id="stop3053" />
    </linearGradient>
    <linearGradient
       inkscape:collect="always"
       xlink:href="#linearGradient3049"
       id="linearGradient3117"
       gradientTransform="scale(0.99997341,1.0000266)"
       x1="2.1637256"
       y1="7.6017308"
       x2="486.39062"
       y2="7.6017308"
       gradientUnits="userSpaceOnUse" />
  </defs>
  <sodipodi:namedview
     id="base"
     pagecolor="#ffffff"
     bordercolor="#666666"
     borderopacity="1.0"
     inkscape:pageopacity="0.0"
     inkscape:pageshadow="2"
     inkscape:zoom="0.7"
     inkscape:cx="134.91835"
     inkscape:cy="247.85714"
     inkscape:document-units="px"
     inkscape:current-layer="layer6"
     showgrid="false"
     inkscape:window-width="1069"
     inkscape:window-height="653"
     inkscape:window-x="64"
     inkscape:window-y="33"
     inkscape:window-maximized="0" />
  <metadata
     id="metadata7">
    <rdf:RDF>
      <cc:Work
         rdf:about="">
        <dc:format>image/svg+xml</dc:format>
        <dc:type
           rdf:resource="http://purl.org/dc/dcmitype/StillImage" />
        <dc:title />
      </cc:Work>
    </rdf:RDF>
  </metadata>
  <g
     inkscape:groupmode="layer"
     id="layer7"
     inkscape:label="Background"
     style="display:none">
    <rect
       style="fill:#000000;stroke:#dde768;stroke-opacity:1"
       id="rect3106"
       width="627.14288"
       height="561.42859"
       x="-61.42857"
       y="-28.571428" />
  </g>
  <filter
     id="i1"
     width="1.5"
     height="1.5"
     color-interpolation-filters="sRGB">
    <feOffset
       result="offOut"
       in="SourceAlpha"
       dx="10"
       dy="10"
       id="feOffset3028" />
    <feGaussianBlur
       result="blurOut"
       in="offOut"
       stdDeviation="5"
       id="feGaussianBlur3030" />
    <feColorMatrix
       result="matrixOut"
       in="offOut"
       type="matrix"
       values="1 1 1 1 1 1 0.2 0 0 0 0 0 0.2 0 0 0 0 0 1 0"
       id="feColorMatrix3032" />
    <feBlend
       in="SourceGraphic"
       in2="blurOut"
       mode="normal"
       id="feBlend3034" />
  </filter>
  <g
     inkscape:groupmode="layer"
     id="layer2"
     inkscape:label="Coupon"
     style="display:inline;filter:url(#i1)">
    <path
       style="fill:url(#linearGradient3117)"
       d="m 334.03125,7.59375 c -9.02827,8.122672 -22.38696,8.420818 -30.5625,0.5 L 5.28125,306.28125 c 8.211281,8.47533 7.610244,22.54601 -1.40625,31.5625 -0.551494,0.55149 -1.132088,1.07403 -1.71875,1.5625 l 27.5,27.5 c 0.490505,-0.52082 0.959421,-1.05316 1.46875,-1.5625 27.62183,-27.62182 72.40943,-27.62182 100.03125,0 27.62183,27.62183 27.62183,72.40943 0,100.03125 -0.50925,0.50926 -1.01059,1.0095 -1.53125,1.5 l 24.96875,24.96875 c 0.48839,-0.58675 1.01101,-1.16725 1.5625,-1.71875 9.09896,-9.09895 23.30098,-9.63653 31.75,-1.1875 0.31719,0.31718 0.61437,0.66709 0.90625,1 l 296.625,-296.625 c -0.33226,-0.2914 -0.65214,-0.6209 -0.96875,-0.9375 -8.44903,-8.44902 -7.91145,-22.65104 1.1875,-31.75 0.23613,-0.23612 0.476,-0.46287 0.71875,-0.6875 L 461.40625,134.96875 C 433.77411,162.46133 389.0787,162.42246 361.5,134.84375 333.92131,107.26505 333.8824,62.569625 361.375,34.9375 L 334.03125,7.59375 z m -95.65625,150.75 21.15625,20.9375 c -7.82814,3.24396 -15.10178,6.99337 -21.875,11.28125 -6.82872,4.23327 -13.1712,9.01101 -19,14.34375 l 23.90625,23.6875 3.125,-2.1875 c 16.18125,-11.90392 29.70603,-18.0968 40.53125,-18.59375 10.82459,-0.60712 21.30818,4.12958 31.46875,14.1875 10.21594,10.11316 14.70863,21.25395 13.5,33.46875 -1.26432,12.16006 -8.29549,25.48545 -21.09375,39.96875 l 25.25,25 -13.375,13.46875 -25.125,-24.71875 c -7.14792,6.66547 -14.60497,12.61185 -22.3125,17.84375 -7.7076,5.23196 -15.74782,9.80929 -24.125,13.71875 l -21.8125,-21.59375 c 9.59644,-3.14221 18.51148,-7.10642 26.71875,-11.84375 8.2067,-4.84769 15.75246,-10.50164 22.625,-17 l -25.90625,-25.65625 -3.21875,2.25 c -15.46786,10.96141 -28.48308,16.77646 -39.03125,17.4375 -10.49314,0.60568 -20.42925,-3.74257 -29.8125,-13.03125 -9.93834,-9.83812 -14.34061,-20.88625 -13.1875,-33.15625 1.15271,-12.38023 7.71086,-25.12047 19.6875,-38.21875 l -19.15625,-19.125 13.375,-13.5 18.90625,18.71875 c 5.94042,-5.11231 12.12245,-9.97573 18.5625,-14.59375 6.4401,-4.61764 13.16849,-8.96982 20.21875,-13.09375 z m -32.8125,60.3125 c -3.68018,4.16204 -5.7361,8.40777 -6.15625,12.71875 -0.42062,4.20076 0.83864,7.74338 3.78125,10.65625 3.27583,3.24289 6.93752,4.73426 10.96875,4.4375 3.97577,-0.35148 8.33828,-2.44509 13.125,-6.28125 L 205.5625,218.65625 z M 284,245.96875 c -0.49985,-0.0139 -0.99617,0.0116 -1.5,0.0625 -4.08626,0.35228 -8.99712,2.86193 -14.71875,7.53125 l 23.15625,22.90625 c 4.72613,-4.88528 7.37505,-9.42371 7.90625,-13.625 0.58606,-4.25661 -0.96061,-8.18489 -4.625,-11.8125 -3.30359,-3.27015 -6.71982,-4.96535 -10.21875,-5.0625 z"
       id="rect3000"
       inkscape:connector-curvature="0" />
  </g>
  <g
     inkscape:groupmode="layer"
     id="layer6"
     inkscape:label="Text $"
     style="display:none">
    <text
       xml:space="preserve"
       style="font-size:40px;font-style:normal;font-weight:normal;line-height:125%;letter-spacing:0px;word-spacing:0px;fill:#000000;fill-opacity:1;stroke:none;font-family:Sans"
       x="-84.968849"
       y="428.46506"
       id="text3826"
       sodipodi:linespacing="125%"
       transform="matrix(0.70351527,-0.71068015,0.71068015,0.70351527,0,0)"><tspan
         sodipodi:role="line"
         id="tspan3828"
         x="-84.968849"
         y="428.46506"
         style="font-size:240px;font-style:normal;font-variant:normal;font-weight:bold;font-stretch:normal;fill:#000000;font-family:Sans;-inkscape-font-specification:Helvetica Bold">$</tspan></text>
  </g>
</svg>
